<svg width="14" height="12" viewBox="0 0 14 12" fill="none" xmlns="http://www.w3.org/2000/svg">
<path d="M13.1667 4.22501C11.6267 1.80501 9.37337 0.411682 7.00004 0.411682C5.81337 0.411682 4.66004 0.758349 3.60671 1.40502C2.55337 2.05835 1.60671 3.01168 0.833374 4.22501C0.166707 5.27168 0.166707 6.97168 0.833374 8.01835C2.37337 10.445 4.62671 11.8317 7.00004 11.8317C8.18671 11.8317 9.34004 11.485 10.3934 10.8383C11.4467 10.185 12.3934 9.23168 13.1667 8.01835C13.8334 6.97835 13.8334 5.27168 13.1667 4.22501ZM7.00004 8.81835C5.50671 8.81835 4.30671 7.61168 4.30671 6.12501C4.30671 4.63835 5.50671 3.43168 7.00004 3.43168C8.49337 3.43168 9.69337 4.63835 9.69337 6.12501C9.69337 7.61168 8.49337 8.81835 7.00004 8.81835Z" fill="#475569"/>
</svg>
