<svg width="40" height="40" viewBox="0 0 40 40" fill="none" xmlns="http://www.w3.org/2000/svg">
<path d="M8.33333 0H31.6667C33.8768 0 35.9964 0.877974 37.5592 2.44078C39.122 4.00358 40 6.1232 40 8.33333V31.6667C40 33.8768 39.122 35.9964 37.5592 37.5592C35.9964 39.122 33.8768 40 31.6667 40H8.33333C6.1232 40 4.00358 39.122 2.44078 37.5592C0.877974 35.9964 0 33.8768 0 31.6667V8.33333C0 6.1232 0.877974 4.00358 2.44078 2.44078C4.00358 0.877974 6.1232 0 8.33333 0ZM25.8333 20H14.1667C11.8667 20 9.87333 21.8833 10.2667 24.1533C10.89 27.7733 12.9867 31.6667 20 31.6667C27.0133 31.6667 29.11 27.7733 29.7333 24.1533C30.1267 21.8867 28.1333 20 25.8333 20ZM20 16.6667C20.6566 16.6667 21.3068 16.5373 21.9134 16.2861C22.52 16.0348 23.0712 15.6665 23.5355 15.2022C23.9998 14.7379 24.3681 14.1867 24.6194 13.5801C24.8707 12.9735 25 12.3233 25 11.6667C25 11.0101 24.8707 10.3599 24.6194 9.75325C24.3681 9.14662 23.9998 8.59542 23.5355 8.13113C23.0712 7.66684 22.52 7.29854 21.9134 7.04727C21.3068 6.79599 20.6566 6.66667 20 6.66667C18.6739 6.66667 17.4021 7.19345 16.4645 8.13113C15.5268 9.06881 15 10.3406 15 11.6667C15 12.9927 15.5268 14.2645 16.4645 15.2022C17.4021 16.1399 18.6739 16.6667 20 16.6667Z" fill="#0857A3"/>
</svg>
